<svg aria-hidden="true" style="position: absolute; width: 0; height: 0; overflow: hidden;" version="1.1" xmlns="http://www.w3.org/2000/svg" xmlns:xlink="http://www.w3.org/1999/xlink">
<defs>
<symbol id="icon-vidio" viewBox="0 0 32 32">
<path fill="none" stroke="#fff" style="stroke: var(--color1, #fff)" stroke-linejoin="miter" stroke-linecap="butt" stroke-miterlimit="4" stroke-width="0.4" d="M31.8 16c0 8.726-7.074 15.8-15.8 15.8s-15.8-7.074-15.8-15.8c0-8.726 7.074-15.8 15.8-15.8s15.8 7.074 15.8 15.8z"></path>
<path fill="#8d86c9" style="fill: var(--color2, #8d86c9)" d="M28.8 16c0 7.069-5.731 12.8-12.8 12.8s-12.8-5.731-12.8-12.8c0-7.069 5.731-12.8 12.8-12.8s12.8 5.731 12.8 12.8z"></path>
<path fill="#fff" style="fill: var(--color1, #fff)" d="M19.2 16l-6.4 4v-8l6.4 4z"></path>
</symbol>
<symbol id="icon-wk" viewBox="0 0 55 32">
<path  d="M54.77 2.361c0.466 1.225-0.965 4.085-4.297 8.576-0.398 0.512-0.988 1.31-1.569 2.117l-0.23 0.336c-1.531 1.906-2.4 3.166-2.599 3.778-0.334 0.816-0.199 1.6 0.4 2.347 0.334 0.409 1.099 1.225 2.299 2.45h0.101v0.103c2.731 2.519 4.562 4.663 5.497 6.434l0.199 0.407 0.199 0.768v0.969l-0.699 0.766-1.698 0.357-7.296 0.206c-0.466 0.069-1.017 0-1.65-0.206-0.554-0.165-1.034-0.374-1.483-0.631l0.034 0.018-0.599-0.407c-0.599-0.409-1.266-1.022-2-1.838-0.731-0.818-1.381-1.566-1.947-2.247-0.518-0.633-1.093-1.187-1.726-1.669l-0.025-0.018c-0.599-0.441-1.131-0.594-1.6-0.457-0.094 0.010-0.179 0.047-0.248 0.101l0.001-0.001c-0.101 0.069-0.267 0.222-0.501 0.459s-0.434 0.528-0.599 0.869c-0.193 0.426-0.35 0.923-0.444 1.441l-0.006 0.040c-0.129 0.646-0.202 1.389-0.202 2.149 0 0.052 0 0.104 0.001 0.156l-0-0.008c0 0.274-0.032 0.526-0.098 0.766-0.057 0.218-0.126 0.405-0.21 0.583l0.009-0.021-0.098 0.101c-0.4 0.411-0.935 0.613-1.6 0.613h-3.2c-1.399 0.137-2.814 0-4.247-0.407-1.425-0.394-2.67-0.935-3.818-1.623l0.070 0.039c-1.065-0.647-2.032-1.294-2.898-1.941-0.74-0.538-1.392-1.091-2.001-1.688l0.003 0.003-0.699-0.715c-0.303-0.239-0.566-0.507-0.792-0.805l-0.008-0.011c-0.494-0.61-1.166-1.474-1.827-2.348l-0.223-0.308c-0.939-1.226-1.942-2.656-2.889-4.127l-0.158-0.262c-0.999-1.568-2.167-3.627-3.497-6.181-1.083-1.993-2.325-4.595-3.455-7.255l-0.248-0.658c-0.108-0.239-0.178-0.517-0.196-0.809l-0-0.007c0-0.206 0.034-0.375 0.101-0.512l0.098-0.098c0.267-0.414 0.8-0.617 1.6-0.617h7.897c0.199 0 0.398 0.053 0.599 0.153l0.501 0.256 0.098 0.103c0.334 0.21 0.582 0.53 0.696 0.907l0.003 0.011c0.4 0.953 0.85 1.957 1.349 3.013 0.503 1.056 0.885 1.856 1.152 2.4l0.398 0.816c0.601 1.159 1.15 2.162 1.65 3.013s0.949 1.515 1.349 1.991c0.4 0.478 0.8 0.853 1.2 1.125s0.731 0.409 0.999 0.409c0.267 0 0.533-0.034 0.8-0.103l0.101-0.153 0.35-0.663 0.4-1.328 0.249-2.35v-3.675c-0.069-0.798-0.175-1.513-0.32-2.214l0.021 0.12c-0.133-0.647-0.267-1.106-0.4-1.378l-0.101-0.306c-0.466-0.681-1.298-1.125-2.498-1.328-0.199 0-0.133-0.238 0.199-0.715 0.334-0.341 0.702-0.613 1.099-0.816 1.001-0.546 3.269-0.784 6.798-0.715 1.531 0 2.832 0.137 3.897 0.409 0.334 0.069 0.633 0.187 0.901 0.357 0.266 0.173 0.472 0.417 0.595 0.705l0.004 0.010c0.135 0.306 0.233 0.613 0.299 0.919 0.069 0.306 0.101 0.75 0.101 1.326v1.584c-0.065 0.562-0.101 1.212-0.101 1.872 0 0.060 0 0.121 0.001 0.181l-0-0.009v2.45c0 0.206-0.016 0.613-0.048 1.225-0.034 0.613-0.050 1.090-0.050 1.431 0 0.338 0.032 0.731 0.098 1.173 0.069 0.443 0.183 0.818 0.35 1.125 0.219 0.422 0.617 0.726 1.090 0.815l0.010 0.001c0.167 0.034 0.418-0.069 0.75-0.306 0.334-0.238 0.702-0.578 1.099-1.022 0.4-0.441 0.901-1.106 1.499-1.989 0.601-0.887 1.234-1.909 1.899-3.065 1.134-2.043 2.165-4.256 3.099-6.638 0.066-0.137 0.149-0.29 0.249-0.459 0.082-0.152 0.201-0.274 0.345-0.357l0.004-0.002h0.101l0.096-0.101 0.4-0.103h0.601l8.197-0.103c0.734-0.069 1.349-0.032 1.851 0.103 0.498 0.137 0.782 0.306 0.848 0.512l0.199 0.306z"></path>
</symbol>
<symbol id="icon-ytube" viewBox="0 0 48 32">
<path d="M46.075 5.456c-0.276-0.965-0.787-1.79-1.468-2.436l-0.002-0.002c-0.698-0.664-1.564-1.159-2.527-1.415l-0.041-0.009c-3.605-0.95-18.048-0.95-18.048-0.95-0.497-0.006-1.084-0.009-1.672-0.009-5.762 0-11.446 0.331-17.035 0.976l0.681-0.064c-1.004 0.284-1.868 0.789-2.57 1.461l0.002-0.002c-0.685 0.655-1.202 1.481-1.483 2.409l-0.010 0.039c-0.597 3.066-0.939 6.591-0.939 10.196 0 0.124 0 0.247 0.001 0.37l-0-0.019c-0.001 0.107-0.001 0.233-0.001 0.359 0 3.602 0.342 7.124 0.994 10.536l-0.056-0.349c0.262 0.92 0.774 1.76 1.488 2.437 0.712 0.677 1.598 1.168 2.573 1.426 3.653 0.949 18.026 0.949 18.026 0.949 0.498 0.006 1.087 0.010 1.676 0.010 5.768 0 11.459-0.331 17.055-0.976l-0.683 0.064c1.004-0.265 1.87-0.76 2.57-1.426l-0.002 0.002c0.71-0.678 1.216-1.52 1.469-2.438 0.662-3.477 0.984-7.008 0.96-10.547 0.051-3.555-0.27-7.104-0.958-10.592v0.003zM19.397 22.573v-13.144l12.016 6.573-12.016 6.571z"></path>
</symbol>
<symbol id="icon-poligon" viewBox="0 0 26 32">
<path fill="#fff" style="fill: var(--color1, #fff)" d="M25.6 16l-25.6 16v-32l25.6 16z"></path>
</symbol>
<symbol id="icon-row-right" viewBox="0 0 32 32">
<path d="M19.414 27.414l10-10c0.781-0.781 0.781-2.047 0-2.828l-10-10c-0.781-0.781-2.047-0.781-2.828 0s-0.781 2.047 0 2.828l6.586 6.586h-19.172c-1.105 0-2 0.895-2 2s0.895 2 2 2h19.172l-6.586 6.586c-0.39 0.39-0.586 0.902-0.586 1.414s0.195 1.024 0.586 1.414c0.781 0.781 2.047 0.781 2.828 0z"></path>
</symbol>
<symbol id="icon-row-left" viewBox="0 0 32 32">
<path d="M12.586 27.414l-10-10c-0.781-0.781-0.781-2.047 0-2.828l10-10c0.781-0.781 2.047-0.781 2.828 0s0.781 2.047 0 2.828l-6.586 6.586h19.172c1.105 0 2 0.895 2 2s-0.895 2-2 2h-19.172l6.586 6.586c0.39 0.39 0.586 0.902 0.586 1.414s-0.195 1.024-0.586 1.414c-0.781 0.781-2.047 0.781-2.828 0z"></path>
</symbol>
<symbol id="icon-tg" viewBox="0 0 40 32">
<path d="M37.3 0.21l-35.432 13.034c-2.42 0.926-2.404 2.214-0.444 2.786l9.098 2.71 21.046-12.668c0.996-0.578 1.904-0.266 1.158 0.366l-17.054 14.682-0.626 8.946c0.92 0 1.324-0.404 1.84-0.878l4.42-4.1 9.19 6.478c1.694 0.89 2.912 0.432 3.332-1.498l6.034-27.122c0.618-2.362-0.946-3.434-2.562-2.736z"></path>
</symbol>
<symbol id="icon-logo" viewBox="0 0 106 32">
<path fill="#fff" style="fill: var(--color1, #fff)" d="M0 10.306l1.54-7.827h16.192l-1.437 7.827h-3.899l-2.668 13.571c-0.035 0.132-0.047 0.275-0.047 0.429 0 0.337 0.068 0.979 0.57 0.979 0.764 0 1.505-0.52 2.143-0.826l-1.767 7c-1.301 0.296-2.611 0.541-3.969 0.541-3.261 0-6.42-0.908-6.42-4.275 0-0.072 0-0.143 0.024-0.215l3.386-17.203h-3.65z"></path>
<path fill="#fff" style="fill: var(--color1, #fff)" d="M36.649 16.786l-13.136 7.704c0.821 0.735 1.711 1.387 2.931 1.387 3.329 0 5.804-2.806 7.857-4.795l-1.563 7.928c-2.896 1.857-6.545 2.897-10.115 2.897-5.713 0-9.624-4.234-9.624-9.153 0-6.724 7.446-13.601 15.029-13.601 2.497 0 4.87 1.082 6.466 2.776 1.368 1.459 2.041 2.99 2.155 4.858zM34.357 31.459l4.333-22.040h8.723c-0.035 0.408-0.069 0.817-0.069 1.214 0 0.378 0.103 0.735 0.217 1.092 1.414-1.408 3.398-2.582 5.576-2.582 3.136 0 5.964 2.041 5.964 4.949 0 0.357-0.035 0.714-0.102 1.061l-3.216 16.306h-8.927l2.714-13.745c0.022-0.133 0.034-0.255 0.034-0.387 0-0.797-0.742-1.378-1.619-1.378-0.957 0-1.585 0.694-1.744 1.489l-2.885 14.021h-8.999zM56.822 31.459l4.345-22.040h8.733v0.51c0 0.735 0.15 1.337 0.605 1.949 0.513-0.582 1.083-1.133 1.802-1.52 1.574-0.827 3.569-1.214 5.381-1.214 0.73 0 1.358 0.184 2.019 0.459 0.547 1.418 1.437 2.509 2.542 3.622l-3.591 18.234h-9.066l2.68-13.582c0.035-0.184 0.045-0.368 0.045-0.551 0-0.786-0.456-1.49-1.437-1.49-1.003 0-1.653 0.806-1.814 1.623l-2.771 14h-9.475zM79.741 31.459l3.466-17.612c1.551 1.174 2.953 1.734 5.007 1.734 1.197 0 2.349-0.245 3.5-0.52l-3.226 16.398h-8.746z"></path>
<path fill="#fff" style="fill: var(--color1, #fff)" d="M83.857 13.224c0.879-0.225 1.757-0.439 2.68-0.439 1.631 0 3.114 0.755 4.515 1.428-0.89 0.255-1.814 0.52-2.747 0.52-1.677 0.001-3.114-0.642-4.449-1.51zM81.599 11.091c-0.752-1.163-1.448-2.367-1.448-3.745 0-2.010 1.197-3.562 2.657-4.979 2.611 1.755 5.144 2.797 8.472 2.797 1.552 0 3.045-0.378 4.516-0.797 0.536 0.949 1.060 1.949 1.060 3.031 0 2.051-1.174 3.734-2.691 5.194-2.246-1.336-4.641-2.49-7.423-2.49-1.779 0-3.478 0.489-5.144 0.989zM85.51 0.735c1.050-0.388 2.099-0.735 3.239-0.735 2.018 0 3.661 0.541 5.155 1.755-0.913 0.408-1.837 0.755-2.874 0.755-2.063 0-3.888-0.673-5.519-1.775zM89.616 30.643l1.493-7.531c0.593 0.572 2.133 2.205 3.17 2.205 0.787 0 0.924-1.133 0.924-1.633 0-0.765-0.194-1.47-0.719-2.102-1.152-1.377-2.634-2.602-2.634-4.448 0-0.755 0.182-1.501 0.377-2.225 2.633-1.031 4.082-2.714 4.891-5.143h9.317l-1.311 6.673c-0.639-0.602-1.391-1.306-2.383-1.306-0.879 0-1.528 0.867-1.528 1.582 0 1.102 0.616 2.337 1.413 3.163l1.448 1.491c0.696 0.714 1.027 1.663 1.027 2.601 0 1.766-1.129 3.449-2.417 4.715-2.191 2.143-4.403 2.826-7.664 2.826-1.869 0-3.625-0.367-5.404-0.867zM21.551 20.939c2.292-0.593 5.782-3.43 6.284-5.521-0.388-0.081-0.787-0.163-1.186-0.163-2.314 0-5.245 2.398-5.245 4.5 0 0.398 0.068 0.797 0.148 1.185z"></path>
</symbol>
</defs>
</svg>
